<mxfile host="app.diagrams.net" modified="2020-07-23T04:42:40.124Z" agent="5.0 (Macintosh; Intel Mac OS X 10_12_6) AppleWebKit/537.36 (KHTML, like Gecko) Chrome/84.0.4147.89 Safari/537.36" etag="eXFdzhdlkOIJHqV9b6BV" version="13.4.9" type="github">
  <diagram id="OUFotzu2nuJO9HsXuHpa" name="Page-1">
    <mxGraphModel dx="1694" dy="1034" grid="1" gridSize="10" guides="1" tooltips="1" connect="1" arrows="1" fold="1" page="1" pageScale="1" pageWidth="827" pageHeight="1169" math="0" shadow="0">
      <root>
        <mxCell id="0" />
        <mxCell id="1" parent="0" />
        <mxCell id="x0C-eYwyRsTy7gLF-6HN-1" value="" style="shape=cube;whiteSpace=wrap;html=1;boundedLbl=1;backgroundOutline=1;darkOpacity=0.05;darkOpacity2=0.1;size=30;" vertex="1" parent="1">
          <mxGeometry x="160" y="120" width="470" height="640" as="geometry" />
        </mxCell>
        <mxCell id="x0C-eYwyRsTy7gLF-6HN-5" value="" style="rounded=0;whiteSpace=wrap;html=1;" vertex="1" parent="1">
          <mxGeometry x="190" y="150" width="80" height="610" as="geometry" />
        </mxCell>
        <mxCell id="x0C-eYwyRsTy7gLF-6HN-9" value="" style="rounded=0;whiteSpace=wrap;html=1;" vertex="1" parent="1">
          <mxGeometry x="270" y="150" width="80" height="610" as="geometry" />
        </mxCell>
        <mxCell id="x0C-eYwyRsTy7gLF-6HN-10" value="" style="rounded=0;whiteSpace=wrap;html=1;" vertex="1" parent="1">
          <mxGeometry x="350" y="150" width="80" height="610" as="geometry" />
        </mxCell>
        <mxCell id="x0C-eYwyRsTy7gLF-6HN-11" value="" style="rounded=0;whiteSpace=wrap;html=1;" vertex="1" parent="1">
          <mxGeometry x="430" y="150" width="80" height="610" as="geometry" />
        </mxCell>
        <mxCell id="x0C-eYwyRsTy7gLF-6HN-12" value="" style="rounded=0;whiteSpace=wrap;html=1;" vertex="1" parent="1">
          <mxGeometry x="510" y="150" width="120" height="610" as="geometry" />
        </mxCell>
        <mxCell id="x0C-eYwyRsTy7gLF-6HN-15" value="" style="endArrow=none;html=1;entryX=1;entryY=0.25;entryDx=0;entryDy=0;" edge="1" parent="1" target="x0C-eYwyRsTy7gLF-6HN-12">
          <mxGeometry width="50" height="50" relative="1" as="geometry">
            <mxPoint x="190" y="300" as="sourcePoint" />
            <mxPoint x="240" y="250" as="targetPoint" />
          </mxGeometry>
        </mxCell>
        <mxCell id="x0C-eYwyRsTy7gLF-6HN-16" value="" style="endArrow=none;html=1;exitX=-0.01;exitY=0.717;exitDx=0;exitDy=0;exitPerimeter=0;" edge="1" parent="1" source="x0C-eYwyRsTy7gLF-6HN-12">
          <mxGeometry width="50" height="50" relative="1" as="geometry">
            <mxPoint x="870" y="630" as="sourcePoint" />
            <mxPoint x="630" y="587" as="targetPoint" />
          </mxGeometry>
        </mxCell>
      </root>
    </mxGraphModel>
  </diagram>
</mxfile>
